<svg width="1440" height="602" viewBox="0 0 1440 602" fill="none" xmlns="http://www.w3.org/2000/svg">
<g clip-path="url(#clip0_227_414)">
<rect width="1440" height="602" fill="#DCDBE9"/>
<path d="M-22 407.757C28 384.757 191.511 266.511 117.5 190.257C18.5 88.2571 157 11.5 342.5 114C528 216.5 367.767 407.757 456 407.757C544.233 407.757 549.5 227.257 641.5 172.757C733.5 118.257 792.5 190.257 829.5 275.257C866.5 360.257 1013.57 408.927 1024.5 353.757C1035 300.757 985 222.257 949 339.757C925.102 417.757 892.5 500.757 975.5 505.757C1058.5 510.757 1209.11 441.81 1295 353.757C1414 231.757 1358 50.5 1425 93C1478.6 127 1484.33 219.924 1485 248.757" stroke="#C5CFB2" stroke-width="15" stroke-linecap="round"/>
</g>
<defs>
<clipPath id="clip0_227_414">
<rect width="1440" height="602" fill="white"/>
</clipPath>
</defs>
</svg>
