<svg width="247" height="67" viewBox="0 0 247 67" fill="none" xmlns="http://www.w3.org/2000/svg">
<g clip-path="url(#clip0_205_244)">
<path d="M20.94 13.5577L13.9286 6.51625H7.44075V13.6544V27.1147L20.94 13.5577Z" fill="#726DA8"/>
<path d="M6.48827 13.0318L6.48874 6.51625L0 13.0313L6.48827 13.0318Z" fill="#726DA8"/>
<path d="M61.3719 3.89375L43.1926 22.1508L65 4.26086L61.3719 3.89375Z" fill="#726DA8"/>
<path d="M25.5336 46.2418L35.8685 67V56.6209L25.5336 46.2418Z" fill="#726DA8"/>
<path d="M36.8211 27.1147V0H63.8204L36.8211 27.1147Z" fill="#726DA8"/>
<path d="M8.86911 27.115H35.8684V0.000358582L8.86911 27.115Z" fill="#726DA8"/>
<path d="M8.86911 28.0716H35.8684V55.1863L8.86911 28.0716Z" fill="#726DA8"/>
<g clip-path="url(#clip1_205_244)">
<path d="M155.016 60.682C151.026 60.682 144.834 28.8208 144.834 40.6217M155.016 60.682C147.116 60.682 144.834 51.7007 144.834 40.6217M155.016 60.682C159.006 60.682 165.199 28.8208 165.199 40.6217M155.016 60.682C162.917 60.682 165.199 51.7007 165.199 40.6217M144.834 40.6217C144.834 52.4225 150.813 20.5613 155.016 20.5613M144.834 40.6217C144.834 29.5426 147.116 20.5613 155.016 20.5613M155.016 20.5613C159.219 20.5613 165.199 52.4225 165.199 40.6217M155.016 20.5613C162.917 20.5613 165.199 29.5426 165.199 40.6217" stroke="#726DA8" stroke-width="1.07"/>
<path d="M107.148 60.7049C95.5954 60.7049 92.2584 51.7444 92.2584 40.6912M107.148 60.7049C101.313 60.7049 92.2584 28.9178 92.2584 40.6912M107.148 60.7049C111.378 60.7049 112.531 53.6269 112.531 45.4444M92.2584 40.6912C92.2584 29.6379 95.5954 20.6775 107.148 20.6775M92.2584 40.6912C92.2584 52.4645 101.002 20.6775 107.148 20.6775M107.148 20.6775C111.378 20.6775 112.531 27.7555 112.531 35.938" stroke="#726DA8" stroke-width="1.07"/>
<path d="M128.702 20.8621C116.621 20.8621 118.675 45.2705 118.675 61C118.675 29.8575 137.293 20.8621 128.702 20.8621ZM128.702 20.8621C140.783 20.8621 138.729 44.4328 138.729 61C138.729 29.8575 120.111 20.8621 128.702 20.8621ZM118.659 2.5V60.7121" stroke="#726DA8" stroke-width="1.07"/>
<path d="M76.1178 20.8389C72.0423 20.963 76.3629 23.1215 80.2632 26.255C83.5301 28.8795 86.2124 32.5783 86.2124 32.5783C86.2124 32.5783 83.275 20.6209 76.1178 20.8389ZM76.1178 20.8389C83.6069 20.6108 65.8775 28.105 66.0677 33.1685M76.1178 20.8389C68.9606 21.0569 65.8775 28.105 66.0677 33.1685M66.0677 33.1685C66.3076 39.5552 73.8179 39.4756 77.1391 39.9339C80.4603 40.3922 86.2473 42.1878 86.2473 48.577M66.0677 33.1685C66.3076 39.5552 74.6079 40.6117 76.8968 41.0559C79.1857 41.5001 86.2473 42.1878 86.2473 48.577M86.2473 48.577C86.2473 53.6424 68.2436 60.7584 75.7382 60.6889M86.2473 48.577C86.2473 53.6424 82.9008 60.6225 75.7382 60.6889M75.7382 60.6889C79.9185 60.6501 74.5172 57.3791 70.593 54.124C67.4815 51.5431 66 48.8172 66 48.8172C66 48.8172 68.5756 60.7553 75.7382 60.6889Z" stroke="#726DA8" stroke-width="1.07"/>
<path d="M189.567 60.729C179.957 60.729 177.181 51.8169 177.181 40.8232M189.567 60.729C184.713 60.729 177.181 29.1133 177.181 40.8232M189.567 60.729C193.085 60.729 194.044 53.6892 194.044 45.5508V40.5794M177.181 40.8232C177.181 29.8296 179.957 20.9174 189.567 20.9174M177.181 40.8232C177.181 52.5331 184.455 20.9174 189.567 20.9174M189.567 20.9174C193.085 20.9174 194.044 27.9573 194.044 36.0957V40.5794M194.044 40.5794C194.522 52.5167 194.788 59.8573 197.71 60.5038" stroke="#726DA8" stroke-width="1.07"/>
<path d="M171.17 60.7121V2.5" stroke="#726DA8" stroke-width="1.07"/>
<path d="M203.515 60.8442V20.8023M213.719 20.6703C213.719 20.6703 221.406 21.1906 218.992 27.9717M213.719 20.6703C210.938 20.6703 207.358 34.7136 205.268 40.7333M213.719 20.6703C205.818 20.6703 203.515 29.7442 203.515 40.8233M205.268 40.7333C204.304 37.9293 203.553 37.6842 203.515 40.8233M205.268 40.7333C204.2 43.8108 203.515 44.8154 203.515 40.8233" stroke="#726DA8" stroke-width="1.07"/>
<path d="M237.857 60.729C228.247 60.729 225.472 51.8169 225.472 40.8232M237.857 60.729C233.003 60.729 225.472 29.1133 225.472 40.8232M237.857 60.729C241.375 60.729 242.334 53.6892 242.334 45.5508V40.5794M225.472 40.8232C225.472 29.8296 228.247 20.9174 237.857 20.9174M225.472 40.8232C225.472 52.5331 232.745 20.9174 237.857 20.9174M237.857 20.9174C241.375 20.9174 242.334 27.9573 242.334 36.0957V40.5794M242.334 40.5794C242.812 52.5167 243.078 59.8573 246 60.5038" stroke="#726DA8" stroke-width="1.07"/>
</g>
</g>
<defs>
<clipPath id="clip0_205_244">
<rect width="247" height="67" fill="white"/>
</clipPath>
<clipPath id="clip1_205_244">
<rect width="182" height="62" fill="white" transform="translate(65 2.5)"/>
</clipPath>
</defs>
</svg>
